<svg xmlns="http://www.w3.org/2000/svg" width="750" height="220" viewBox="0 0 750 220" role="img" aria-label="vpoonyak GitHub vitals"><title>vpoonyak — GitHub vitals</title><style>@media (prefers-reduced-motion: no-preference){.sweep{stroke-dasharray:200 800;stroke-dashoffset:200;animation:ecg 6s linear infinite;}}@keyframes ecg{to{stroke-dashoffset:-800;}}</style><g shape-rendering="crispEdges"><rect width="750" height="220" fill="#0b1f3a"/><rect x="24" y="48" width="36" height="3" fill="#0056b3"/></g><g font-family="Verdana,Geneva,DejaVu Sans,sans-serif" text-rendering="geometricPrecision"><text x="24" y="38" font-size="14" font-weight="bold" fill="#ffffff" letter-spacing="1">VPOONYAK — GITHUB VITALS</text><text x="726" y="38" font-size="9" fill="#7d93b3" text-anchor="end" letter-spacing="1">90-DAY TELEMETRY · 2026-09-11</text><text x="24" y="64" font-size="9" fill="#7d93b3" letter-spacing="1">DAILY CONTRIBUTIONS</text><rect x="24" y="109" width="428" height="1" fill="#122a4d"/><rect x="24" y="147" width="428" height="1" fill="#122a4d"/><rect x="96" y="72" width="1" height="112" fill="#122a4d"/><rect x="168" y="72" width="1" height="112" fill="#122a4d"/><rect x="240" y="72" width="1" height="112" fill="#122a4d"/><rect x="313" y="72" width="1" height="112" fill="#122a4d"/><rect x="385" y="72" width="1" height="112" fill="#122a4d"/><rect x="24" y="184" width="428" height="1" fill="#17345a"/><polyline points="24.0,120.0 28.8,181.3 33.6,178.7 38.4,162.7 43.2,178.7 48.0,184.0 52.9,178.7 57.7,176.0 62.5,184.0 67.3,184.0 72.1,82.7 76.9,136.0 81.7,168.0 86.5,181.3 91.3,133.3 96.1,170.7 100.9,168.0 105.8,141.3 110.6,160.0 115.4,173.3 120.2,154.7 125.0,173.3 129.8,173.3 134.6,162.7 139.4,178.7 144.2,152.0 149.0,170.7 153.8,181.3 158.7,184.0 163.5,184.0 168.3,154.7 173.1,146.7 177.9,173.3 182.7,173.3 187.5,173.3 192.3,176.0 197.1,184.0 201.9,184.0 206.7,184.0 211.6,170.7 216.4,184.0 221.2,184.0 226.0,184.0 230.8,184.0 235.6,184.0 240.4,178.7 245.2,173.3 250.0,170.7 254.8,157.3 259.6,184.0 264.4,128.0 269.3,85.3 274.1,176.0 278.9,178.7 283.7,173.3 288.5,184.0 293.3,178.7 298.1,178.7 302.9,184.0 307.7,184.0 312.5,184.0 317.3,176.0 322.2,176.0 327.0,184.0 331.8,184.0 336.6,184.0 341.4,184.0 346.2,176.0 351.0,178.7 355.8,184.0 360.6,184.0 365.4,184.0 370.2,173.3 375.1,184.0 379.9,184.0 384.7,178.7 389.5,181.3 394.3,181.3 399.1,184.0 403.9,184.0 408.7,184.0 413.5,184.0 418.3,133.3 423.1,160.0 428.0,80.0 432.8,178.7 437.6,141.3 442.4,176.0 447.2,136.0 452.0,178.7" fill="none" stroke="#6fb1ff" stroke-opacity="0.35" stroke-width="2" stroke-linejoin="round" stroke-linecap="round"/><polyline class="sweep" points="24.0,120.0 28.8,181.3 33.6,178.7 38.4,162.7 43.2,178.7 48.0,184.0 52.9,178.7 57.7,176.0 62.5,184.0 67.3,184.0 72.1,82.7 76.9,136.0 81.7,168.0 86.5,181.3 91.3,133.3 96.1,170.7 100.9,168.0 105.8,141.3 110.6,160.0 115.4,173.3 120.2,154.7 125.0,173.3 129.8,173.3 134.6,162.7 139.4,178.7 144.2,152.0 149.0,170.7 153.8,181.3 158.7,184.0 163.5,184.0 168.3,154.7 173.1,146.7 177.9,173.3 182.7,173.3 187.5,173.3 192.3,176.0 197.1,184.0 201.9,184.0 206.7,184.0 211.6,170.7 216.4,184.0 221.2,184.0 226.0,184.0 230.8,184.0 235.6,184.0 240.4,178.7 245.2,173.3 250.0,170.7 254.8,157.3 259.6,184.0 264.4,128.0 269.3,85.3 274.1,176.0 278.9,178.7 283.7,173.3 288.5,184.0 293.3,178.7 298.1,178.7 302.9,184.0 307.7,184.0 312.5,184.0 317.3,176.0 322.2,176.0 327.0,184.0 331.8,184.0 336.6,184.0 341.4,184.0 346.2,176.0 351.0,178.7 355.8,184.0 360.6,184.0 365.4,184.0 370.2,173.3 375.1,184.0 379.9,184.0 384.7,178.7 389.5,181.3 394.3,181.3 399.1,184.0 403.9,184.0 408.7,184.0 413.5,184.0 418.3,133.3 423.1,160.0 428.0,80.0 432.8,178.7 437.6,141.3 442.4,176.0 447.2,136.0 452.0,178.7" fill="none" stroke="#6fb1ff" stroke-width="2" stroke-linejoin="round" stroke-linecap="round" pathLength="1000"/><text x="428.0" y="74.0" font-size="9" fill="#7d93b3" text-anchor="middle">peak 39</text><text x="105.8" y="200" font-size="9" fill="#7d93b3" text-anchor="middle">JUL</text><text x="254.8" y="200" font-size="9" fill="#7d93b3" text-anchor="middle">AUG</text><text x="403.9" y="200" font-size="9" fill="#7d93b3" text-anchor="middle">SEP</text><text x="492" y="82" font-size="10" fill="#7d93b3" letter-spacing="1">CONTRIB — THIS WEEK</text><text x="726" y="84" font-size="18" font-weight="bold" fill="#ffffff" text-anchor="end">80</text><rect x="492" y="96" width="234" height="4" fill="#122a4d"/><rect x="662" y="92" width="3" height="12" fill="#6fb1ff"/><text x="492" y="116" font-size="8" fill="#7d93b3">52-WK LOW 0</text><text x="726" y="116" font-size="8" fill="#7d93b3" text-anchor="end">HIGH 109</text><rect x="492" y="126" width="234" height="1" fill="#17345a"/><text x="492" y="145" font-size="10" fill="#7d93b3" letter-spacing="1">CURRENT STREAK</text><text x="726" y="145" font-size="13" font-weight="bold" fill="#6fb1ff" text-anchor="end">8 days</text><rect x="492" y="156" width="234" height="1" fill="#17345a"/><text x="492" y="176" font-size="8" fill="#7d93b3" letter-spacing="1">STARS</text><text x="492" y="196" font-size="16" font-weight="bold" fill="#ffffff">2</text><text x="552" y="176" font-size="8" fill="#7d93b3" letter-spacing="1">PRS</text><text x="552" y="196" font-size="16" font-weight="bold" fill="#ffffff">7</text><text x="612" y="176" font-size="8" fill="#7d93b3" letter-spacing="1">REPOS</text><text x="612" y="196" font-size="16" font-weight="bold" fill="#ffffff">19</text><text x="672" y="176" font-size="8" fill="#7d93b3" letter-spacing="1">COMMITS 1Y</text><text x="672" y="196" font-size="16" font-weight="bold" fill="#ffffff">375</text></g></svg>
