<svg xmlns="http://www.w3.org/2000/svg" width="750" height="220" viewBox="0 0 750 220" role="img" aria-label="vpoonyak GitHub vitals"><title>vpoonyak — GitHub vitals</title><style>@media (prefers-reduced-motion: no-preference){.sweep{stroke-dasharray:200 800;stroke-dashoffset:200;animation:ecg 6s linear infinite;}}@keyframes ecg{to{stroke-dashoffset:-800;}}</style><g shape-rendering="crispEdges"><rect width="750" height="220" fill="#0b1f3a"/><rect x="24" y="48" width="36" height="3" fill="#0056b3"/></g><g font-family="Verdana,Geneva,DejaVu Sans,sans-serif" text-rendering="geometricPrecision"><text x="24" y="38" font-size="14" font-weight="bold" fill="#ffffff" letter-spacing="1">VPOONYAK — GITHUB VITALS</text><text x="726" y="38" font-size="9" fill="#7d93b3" text-anchor="end" letter-spacing="1">90-DAY TELEMETRY · 2026-09-07</text><text x="24" y="64" font-size="9" fill="#7d93b3" letter-spacing="1">DAILY CONTRIBUTIONS</text><rect x="24" y="109" width="428" height="1" fill="#122a4d"/><rect x="24" y="147" width="428" height="1" fill="#122a4d"/><rect x="96" y="72" width="1" height="112" fill="#122a4d"/><rect x="168" y="72" width="1" height="112" fill="#122a4d"/><rect x="240" y="72" width="1" height="112" fill="#122a4d"/><rect x="313" y="72" width="1" height="112" fill="#122a4d"/><rect x="385" y="72" width="1" height="112" fill="#122a4d"/><rect x="24" y="184" width="428" height="1" fill="#17345a"/><polyline points="24.0,181.3 28.8,176.0 33.6,184.0 38.4,133.3 43.2,120.0 48.0,181.3 52.9,178.7 57.7,162.7 62.5,178.7 67.3,184.0 72.1,178.7 76.9,176.0 81.7,184.0 86.5,184.0 91.3,82.7 96.1,136.0 100.9,168.0 105.8,181.3 110.6,133.3 115.4,170.7 120.2,168.0 125.0,141.3 129.8,160.0 134.6,173.3 139.4,154.7 144.2,173.3 149.0,173.3 153.8,162.7 158.7,178.7 163.5,152.0 168.3,170.7 173.1,181.3 177.9,184.0 182.7,184.0 187.5,154.7 192.3,146.7 197.1,173.3 201.9,173.3 206.7,173.3 211.6,176.0 216.4,184.0 221.2,184.0 226.0,184.0 230.8,170.7 235.6,184.0 240.4,184.0 245.2,184.0 250.0,184.0 254.8,184.0 259.6,178.7 264.4,173.3 269.3,170.7 274.1,157.3 278.9,184.0 283.7,128.0 288.5,85.3 293.3,176.0 298.1,178.7 302.9,173.3 307.7,184.0 312.5,178.7 317.3,178.7 322.2,184.0 327.0,184.0 331.8,184.0 336.6,176.0 341.4,176.0 346.2,184.0 351.0,184.0 355.8,184.0 360.6,184.0 365.4,176.0 370.2,178.7 375.1,184.0 379.9,184.0 384.7,184.0 389.5,173.3 394.3,184.0 399.1,184.0 403.9,178.7 408.7,181.3 413.5,181.3 418.3,184.0 423.1,184.0 428.0,184.0 432.8,184.0 437.6,133.3 442.4,160.0 447.2,80.0 452.0,181.3" fill="none" stroke="#6fb1ff" stroke-opacity="0.35" stroke-width="2" stroke-linejoin="round" stroke-linecap="round"/><polyline class="sweep" points="24.0,181.3 28.8,176.0 33.6,184.0 38.4,133.3 43.2,120.0 48.0,181.3 52.9,178.7 57.7,162.7 62.5,178.7 67.3,184.0 72.1,178.7 76.9,176.0 81.7,184.0 86.5,184.0 91.3,82.7 96.1,136.0 100.9,168.0 105.8,181.3 110.6,133.3 115.4,170.7 120.2,168.0 125.0,141.3 129.8,160.0 134.6,173.3 139.4,154.7 144.2,173.3 149.0,173.3 153.8,162.7 158.7,178.7 163.5,152.0 168.3,170.7 173.1,181.3 177.9,184.0 182.7,184.0 187.5,154.7 192.3,146.7 197.1,173.3 201.9,173.3 206.7,173.3 211.6,176.0 216.4,184.0 221.2,184.0 226.0,184.0 230.8,170.7 235.6,184.0 240.4,184.0 245.2,184.0 250.0,184.0 254.8,184.0 259.6,178.7 264.4,173.3 269.3,170.7 274.1,157.3 278.9,184.0 283.7,128.0 288.5,85.3 293.3,176.0 298.1,178.7 302.9,173.3 307.7,184.0 312.5,178.7 317.3,178.7 322.2,184.0 327.0,184.0 331.8,184.0 336.6,176.0 341.4,176.0 346.2,184.0 351.0,184.0 355.8,184.0 360.6,184.0 365.4,176.0 370.2,178.7 375.1,184.0 379.9,184.0 384.7,184.0 389.5,173.3 394.3,184.0 399.1,184.0 403.9,178.7 408.7,181.3 413.5,181.3 418.3,184.0 423.1,184.0 428.0,184.0 432.8,184.0 437.6,133.3 442.4,160.0 447.2,80.0 452.0,181.3" fill="none" stroke="#6fb1ff" stroke-width="2" stroke-linejoin="round" stroke-linecap="round" pathLength="1000"/><text x="432" y="74.0" font-size="9" fill="#7d93b3" text-anchor="middle">peak 39</text><text x="125.0" y="200" font-size="9" fill="#7d93b3" text-anchor="middle">JUL</text><text x="274.1" y="200" font-size="9" fill="#7d93b3" text-anchor="middle">AUG</text><text x="423.1" y="200" font-size="9" fill="#7d93b3" text-anchor="middle">SEP</text><text x="492" y="82" font-size="10" fill="#7d93b3" letter-spacing="1">CONTRIB — THIS WEEK</text><text x="726" y="84" font-size="18" font-weight="bold" fill="#ffffff" text-anchor="end">40</text><rect x="492" y="96" width="234" height="4" fill="#122a4d"/><rect x="577" y="92" width="3" height="12" fill="#6fb1ff"/><text x="492" y="116" font-size="8" fill="#7d93b3">52-WK LOW 0</text><text x="726" y="116" font-size="8" fill="#7d93b3" text-anchor="end">HIGH 109</text><rect x="492" y="126" width="234" height="1" fill="#17345a"/><text x="492" y="145" font-size="10" fill="#7d93b3" letter-spacing="1">CURRENT STREAK</text><text x="726" y="145" font-size="13" font-weight="bold" fill="#6fb1ff" text-anchor="end">4 days</text><rect x="492" y="156" width="234" height="1" fill="#17345a"/><text x="492" y="176" font-size="8" fill="#7d93b3" letter-spacing="1">STARS</text><text x="492" y="196" font-size="16" font-weight="bold" fill="#ffffff">2</text><text x="552" y="176" font-size="8" fill="#7d93b3" letter-spacing="1">PRS</text><text x="552" y="196" font-size="16" font-weight="bold" fill="#ffffff">5</text><text x="612" y="176" font-size="8" fill="#7d93b3" letter-spacing="1">REPOS</text><text x="612" y="196" font-size="16" font-weight="bold" fill="#ffffff">19</text><text x="672" y="176" font-size="8" fill="#7d93b3" letter-spacing="1">COMMITS 1Y</text><text x="672" y="196" font-size="16" font-weight="bold" fill="#ffffff">351</text></g></svg>
