<svg xmlns="http://www.w3.org/2000/svg" width="750" height="220" viewBox="0 0 750 220" role="img" aria-label="vpoonyak GitHub vitals"><title>vpoonyak — GitHub vitals</title><style>@media (prefers-reduced-motion: no-preference){.sweep{stroke-dasharray:200 800;stroke-dashoffset:200;animation:ecg 6s linear infinite;}}@keyframes ecg{to{stroke-dashoffset:-800;}}</style><g shape-rendering="crispEdges"><rect width="750" height="220" fill="#0b1f3a"/><rect x="24" y="48" width="36" height="3" fill="#0056b3"/></g><g font-family="Verdana,Geneva,DejaVu Sans,sans-serif" text-rendering="geometricPrecision"><text x="24" y="38" font-size="14" font-weight="bold" fill="#ffffff" letter-spacing="1">VPOONYAK — GITHUB VITALS</text><text x="726" y="38" font-size="9" fill="#7d93b3" text-anchor="end" letter-spacing="1">90-DAY TELEMETRY · 2026-09-30</text><text x="24" y="64" font-size="9" fill="#7d93b3" letter-spacing="1">DAILY CONTRIBUTIONS</text><rect x="24" y="109" width="428" height="1" fill="#122a4d"/><rect x="24" y="147" width="428" height="1" fill="#122a4d"/><rect x="96" y="72" width="1" height="112" fill="#122a4d"/><rect x="168" y="72" width="1" height="112" fill="#122a4d"/><rect x="240" y="72" width="1" height="112" fill="#122a4d"/><rect x="313" y="72" width="1" height="112" fill="#122a4d"/><rect x="385" y="72" width="1" height="112" fill="#122a4d"/><rect x="24" y="184" width="428" height="1" fill="#17345a"/><polyline points="24.0,177.2 28.8,165.2 33.6,177.2 38.4,177.2 43.2,170.4 48.0,180.6 52.9,163.5 57.7,175.5 62.5,182.3 67.3,184.0 72.1,184.0 76.9,165.2 81.7,160.1 86.5,177.2 91.3,177.2 96.1,177.2 100.9,178.9 105.8,184.0 110.6,184.0 115.4,184.0 120.2,175.5 125.0,184.0 129.8,184.0 134.6,184.0 139.4,184.0 144.2,184.0 149.0,180.6 153.8,177.2 158.7,175.5 163.5,167.0 168.3,184.0 173.1,148.2 177.9,120.9 182.7,178.9 187.5,180.6 192.3,177.2 197.1,184.0 201.9,180.6 206.7,180.6 211.6,184.0 216.4,184.0 221.2,184.0 226.0,178.9 230.8,178.9 235.6,184.0 240.4,184.0 245.2,184.0 250.0,184.0 254.8,178.9 259.6,180.6 264.4,184.0 269.3,184.0 274.1,184.0 278.9,177.2 283.7,184.0 288.5,184.0 293.3,180.6 298.1,182.3 302.9,182.3 307.7,184.0 312.5,184.0 317.3,184.0 322.2,184.0 327.0,151.6 331.8,168.7 336.6,117.5 341.4,180.6 346.2,156.7 351.0,178.9 355.8,153.3 360.6,178.9 365.4,184.0 370.2,172.1 375.1,173.8 379.9,172.1 384.7,151.6 389.5,168.7 394.3,127.7 399.1,149.9 403.9,173.8 408.7,177.2 413.5,80.0 418.3,131.1 423.1,165.2 428.0,180.6 432.8,184.0 437.6,165.2 442.4,163.5 447.2,126.0 452.0,173.8" fill="none" stroke="#6fb1ff" stroke-opacity="0.35" stroke-width="2" stroke-linejoin="round" stroke-linecap="round"/><polyline class="sweep" points="24.0,177.2 28.8,165.2 33.6,177.2 38.4,177.2 43.2,170.4 48.0,180.6 52.9,163.5 57.7,175.5 62.5,182.3 67.3,184.0 72.1,184.0 76.9,165.2 81.7,160.1 86.5,177.2 91.3,177.2 96.1,177.2 100.9,178.9 105.8,184.0 110.6,184.0 115.4,184.0 120.2,175.5 125.0,184.0 129.8,184.0 134.6,184.0 139.4,184.0 144.2,184.0 149.0,180.6 153.8,177.2 158.7,175.5 163.5,167.0 168.3,184.0 173.1,148.2 177.9,120.9 182.7,178.9 187.5,180.6 192.3,177.2 197.1,184.0 201.9,180.6 206.7,180.6 211.6,184.0 216.4,184.0 221.2,184.0 226.0,178.9 230.8,178.9 235.6,184.0 240.4,184.0 245.2,184.0 250.0,184.0 254.8,178.9 259.6,180.6 264.4,184.0 269.3,184.0 274.1,184.0 278.9,177.2 283.7,184.0 288.5,184.0 293.3,180.6 298.1,182.3 302.9,182.3 307.7,184.0 312.5,184.0 317.3,184.0 322.2,184.0 327.0,151.6 331.8,168.7 336.6,117.5 341.4,180.6 346.2,156.7 351.0,178.9 355.8,153.3 360.6,178.9 365.4,184.0 370.2,172.1 375.1,173.8 379.9,172.1 384.7,151.6 389.5,168.7 394.3,127.7 399.1,149.9 403.9,173.8 408.7,177.2 413.5,80.0 418.3,131.1 423.1,165.2 428.0,180.6 432.8,184.0 437.6,165.2 442.4,163.5 447.2,126.0 452.0,173.8" fill="none" stroke="#6fb1ff" stroke-width="2" stroke-linejoin="round" stroke-linecap="round" pathLength="1000"/><text x="413.5" y="74.0" font-size="9" fill="#7d93b3" text-anchor="middle">peak 61</text><text x="163.5" y="200" font-size="9" fill="#7d93b3" text-anchor="middle">AUG</text><text x="312.5" y="200" font-size="9" fill="#7d93b3" text-anchor="middle">SEP</text><text x="492" y="82" font-size="10" fill="#7d93b3" letter-spacing="1">CONTRIB — THIS WEEK</text><text x="726" y="84" font-size="18" font-weight="bold" fill="#ffffff" text-anchor="end">63</text><rect x="492" y="96" width="234" height="4" fill="#122a4d"/><rect x="619" y="92" width="3" height="12" fill="#6fb1ff"/><text x="492" y="116" font-size="8" fill="#7d93b3">52-WK LOW 0</text><text x="726" y="116" font-size="8" fill="#7d93b3" text-anchor="end">HIGH 115</text><rect x="492" y="126" width="234" height="1" fill="#17345a"/><text x="492" y="145" font-size="10" fill="#7d93b3" letter-spacing="1">CURRENT STREAK</text><text x="726" y="145" font-size="13" font-weight="bold" fill="#6fb1ff" text-anchor="end">4 days</text><rect x="492" y="156" width="234" height="1" fill="#17345a"/><text x="492" y="176" font-size="8" fill="#7d93b3" letter-spacing="1">STARS</text><text x="492" y="196" font-size="16" font-weight="bold" fill="#ffffff">2</text><text x="552" y="176" font-size="8" fill="#7d93b3" letter-spacing="1">PRS</text><text x="552" y="196" font-size="16" font-weight="bold" fill="#ffffff">8</text><text x="612" y="176" font-size="8" fill="#7d93b3" letter-spacing="1">REPOS</text><text x="612" y="196" font-size="16" font-weight="bold" fill="#ffffff">17</text><text x="672" y="176" font-size="8" fill="#7d93b3" letter-spacing="1">COMMITS 1Y</text><text x="672" y="196" font-size="16" font-weight="bold" fill="#ffffff">145</text></g></svg>
