<svg xmlns="http://www.w3.org/2000/svg" width="750" height="220" viewBox="0 0 750 220" role="img" aria-label="Top languages"><title>Top languages</title><g shape-rendering="crispEdges"><rect width="750" height="220" fill="#0b1f3a"/><rect x="24" y="48" width="36" height="3" fill="#0056b3"/></g><g font-family="Verdana,Geneva,DejaVu Sans,sans-serif" text-rendering="geometricPrecision"><text x="24" y="38" font-size="14" font-weight="bold" fill="#ffffff" letter-spacing="1">TOP LANGUAGES</text><text x="726" y="38" font-size="9" fill="#7d93b3" text-anchor="end" letter-spacing="1">BYTES VS REPO BREADTH · PUBLIC</text><text x="24" y="64" font-size="9" fill="#7d93b3" letter-spacing="1">SHARE OF CODE — 1 CELL = 1%</text><rect x="24" y="72" width="11" height="11" fill="#3987e5" shape-rendering="crispEdges"/><rect x="37" y="72" width="11" height="11" fill="#3987e5" shape-rendering="crispEdges"/><rect x="50" y="72" width="11" height="11" fill="#3987e5" shape-rendering="crispEdges"/><rect x="63" y="72" width="11" height="11" fill="#3987e5" shape-rendering="crispEdges"/><rect x="76" y="72" width="11" height="11" fill="#3987e5" shape-rendering="crispEdges"/><rect x="89" y="72" width="11" height="11" fill="#3987e5" shape-rendering="crispEdges"/><rect x="102" y="72" width="11" height="11" fill="#3987e5" shape-rendering="crispEdges"/><rect x="115" y="72" width="11" height="11" fill="#3987e5" shape-rendering="crispEdges"/><rect x="128" y="72" width="11" height="11" fill="#3987e5" shape-rendering="crispEdges"/><rect x="141" y="72" width="11" height="11" fill="#3987e5" shape-rendering="crispEdges"/><rect x="24" y="85" width="11" height="11" fill="#3987e5" shape-rendering="crispEdges"/><rect x="37" y="85" width="11" height="11" fill="#3987e5" shape-rendering="crispEdges"/><rect x="50" y="85" width="11" height="11" fill="#3987e5" shape-rendering="crispEdges"/><rect x="63" y="85" width="11" height="11" fill="#3987e5" shape-rendering="crispEdges"/><rect x="76" y="85" width="11" height="11" fill="#3987e5" shape-rendering="crispEdges"/><rect x="89" y="85" width="11" height="11" fill="#3987e5" shape-rendering="crispEdges"/><rect x="102" y="85" width="11" height="11" fill="#3987e5" shape-rendering="crispEdges"/><rect x="115" y="85" width="11" height="11" fill="#3987e5" shape-rendering="crispEdges"/><rect x="128" y="85" width="11" height="11" fill="#3987e5" shape-rendering="crispEdges"/><rect x="141" y="85" width="11" height="11" fill="#3987e5" shape-rendering="crispEdges"/><rect x="24" y="98" width="11" height="11" fill="#3987e5" shape-rendering="crispEdges"/><rect x="37" y="98" width="11" height="11" fill="#3987e5" shape-rendering="crispEdges"/><rect x="50" y="98" width="11" height="11" fill="#3987e5" shape-rendering="crispEdges"/><rect x="63" y="98" width="11" height="11" fill="#3987e5" shape-rendering="crispEdges"/><rect x="76" y="98" width="11" height="11" fill="#3987e5" shape-rendering="crispEdges"/><rect x="89" y="98" width="11" height="11" fill="#3987e5" shape-rendering="crispEdges"/><rect x="102" y="98" width="11" height="11" fill="#3987e5" shape-rendering="crispEdges"/><rect x="115" y="98" width="11" height="11" fill="#3987e5" shape-rendering="crispEdges"/><rect x="128" y="98" width="11" height="11" fill="#3987e5" shape-rendering="crispEdges"/><rect x="141" y="98" width="11" height="11" fill="#3987e5" shape-rendering="crispEdges"/><rect x="24" y="111" width="11" height="11" fill="#3987e5" shape-rendering="crispEdges"/><rect x="37" y="111" width="11" height="11" fill="#3987e5" shape-rendering="crispEdges"/><rect x="50" y="111" width="11" height="11" fill="#3987e5" shape-rendering="crispEdges"/><rect x="63" y="111" width="11" height="11" fill="#3987e5" shape-rendering="crispEdges"/><rect x="76" y="111" width="11" height="11" fill="#3987e5" shape-rendering="crispEdges"/><rect x="89" y="111" width="11" height="11" fill="#3987e5" shape-rendering="crispEdges"/><rect x="102" y="111" width="11" height="11" fill="#3987e5" shape-rendering="crispEdges"/><rect x="115" y="111" width="11" height="11" fill="#3987e5" shape-rendering="crispEdges"/><rect x="128" y="111" width="11" height="11" fill="#3987e5" shape-rendering="crispEdges"/><rect x="141" y="111" width="11" height="11" fill="#3987e5" shape-rendering="crispEdges"/><rect x="24" y="124" width="11" height="11" fill="#3987e5" shape-rendering="crispEdges"/><rect x="37" y="124" width="11" height="11" fill="#3987e5" shape-rendering="crispEdges"/><rect x="50" y="124" width="11" height="11" fill="#3987e5" shape-rendering="crispEdges"/><rect x="63" y="124" width="11" height="11" fill="#3987e5" shape-rendering="crispEdges"/><rect x="76" y="124" width="11" height="11" fill="#3987e5" shape-rendering="crispEdges"/><rect x="89" y="124" width="11" height="11" fill="#3987e5" shape-rendering="crispEdges"/><rect x="102" y="124" width="11" height="11" fill="#3987e5" shape-rendering="crispEdges"/><rect x="115" y="124" width="11" height="11" fill="#3987e5" shape-rendering="crispEdges"/><rect x="128" y="124" width="11" height="11" fill="#3987e5" shape-rendering="crispEdges"/><rect x="141" y="124" width="11" height="11" fill="#3987e5" shape-rendering="crispEdges"/><rect x="24" y="137" width="11" height="11" fill="#3987e5" shape-rendering="crispEdges"/><rect x="37" y="137" width="11" height="11" fill="#3987e5" shape-rendering="crispEdges"/><rect x="50" y="137" width="11" height="11" fill="#3987e5" shape-rendering="crispEdges"/><rect x="63" y="137" width="11" height="11" fill="#3987e5" shape-rendering="crispEdges"/><rect x="76" y="137" width="11" height="11" fill="#3987e5" shape-rendering="crispEdges"/><rect x="89" y="137" width="11" height="11" fill="#3987e5" shape-rendering="crispEdges"/><rect x="102" y="137" width="11" height="11" fill="#3987e5" shape-rendering="crispEdges"/><rect x="115" y="137" width="11" height="11" fill="#3987e5" shape-rendering="crispEdges"/><rect x="128" y="137" width="11" height="11" fill="#3987e5" shape-rendering="crispEdges"/><rect x="141" y="137" width="11" height="11" fill="#3987e5" shape-rendering="crispEdges"/><rect x="24" y="150" width="11" height="11" fill="#3987e5" shape-rendering="crispEdges"/><rect x="37" y="150" width="11" height="11" fill="#3987e5" shape-rendering="crispEdges"/><rect x="50" y="150" width="11" height="11" fill="#3987e5" shape-rendering="crispEdges"/><rect x="63" y="150" width="11" height="11" fill="#3987e5" shape-rendering="crispEdges"/><rect x="76" y="150" width="11" height="11" fill="#3987e5" shape-rendering="crispEdges"/><rect x="89" y="150" width="11" height="11" fill="#3987e5" shape-rendering="crispEdges"/><rect x="102" y="150" width="11" height="11" fill="#3987e5" shape-rendering="crispEdges"/><rect x="115" y="150" width="11" height="11" fill="#3987e5" shape-rendering="crispEdges"/><rect x="128" y="150" width="11" height="11" fill="#3987e5" shape-rendering="crispEdges"/><rect x="141" y="150" width="11" height="11" fill="#3987e5" shape-rendering="crispEdges"/><rect x="24" y="163" width="11" height="11" fill="#3987e5" shape-rendering="crispEdges"/><rect x="37" y="163" width="11" height="11" fill="#3987e5" shape-rendering="crispEdges"/><rect x="50" y="163" width="11" height="11" fill="#3987e5" shape-rendering="crispEdges"/><rect x="63" y="163" width="11" height="11" fill="#3987e5" shape-rendering="crispEdges"/><rect x="76" y="163" width="11" height="11" fill="#3987e5" shape-rendering="crispEdges"/><rect x="89" y="163" width="11" height="11" fill="#3987e5" shape-rendering="crispEdges"/><rect x="102" y="163" width="11" height="11" fill="#3987e5" shape-rendering="crispEdges"/><rect x="115" y="163" width="11" height="11" fill="#3987e5" shape-rendering="crispEdges"/><rect x="128" y="163" width="11" height="11" fill="#3987e5" shape-rendering="crispEdges"/><rect x="141" y="163" width="11" height="11" fill="#3987e5" shape-rendering="crispEdges"/><rect x="24" y="176" width="11" height="11" fill="#3987e5" shape-rendering="crispEdges"/><rect x="37" y="176" width="11" height="11" fill="#3987e5" shape-rendering="crispEdges"/><rect x="50" y="176" width="11" height="11" fill="#3987e5" shape-rendering="crispEdges"/><rect x="63" y="176" width="11" height="11" fill="#3987e5" shape-rendering="crispEdges"/><rect x="76" y="176" width="11" height="11" fill="#3987e5" shape-rendering="crispEdges"/><rect x="89" y="176" width="11" height="11" fill="#d95926" shape-rendering="crispEdges"/><rect x="102" y="176" width="11" height="11" fill="#d95926" shape-rendering="crispEdges"/><rect x="115" y="176" width="11" height="11" fill="#d95926" shape-rendering="crispEdges"/><rect x="128" y="176" width="11" height="11" fill="#d95926" shape-rendering="crispEdges"/><rect x="141" y="176" width="11" height="11" fill="#d95926" shape-rendering="crispEdges"/><rect x="24" y="189" width="11" height="11" fill="#d95926" shape-rendering="crispEdges"/><rect x="37" y="189" width="11" height="11" fill="#199e70" shape-rendering="crispEdges"/><rect x="50" y="189" width="11" height="11" fill="#199e70" shape-rendering="crispEdges"/><rect x="63" y="189" width="11" height="11" fill="#199e70" shape-rendering="crispEdges"/><rect x="76" y="189" width="11" height="11" fill="#199e70" shape-rendering="crispEdges"/><rect x="89" y="189" width="11" height="11" fill="#c98500" shape-rendering="crispEdges"/><rect x="102" y="189" width="11" height="11" fill="#c98500" shape-rendering="crispEdges"/><rect x="115" y="189" width="11" height="11" fill="#d55181" shape-rendering="crispEdges"/><rect x="128" y="189" width="11" height="11" fill="#008300" shape-rendering="crispEdges"/><rect x="141" y="189" width="11" height="11" fill="#3d5a7e" shape-rendering="crispEdges"/><rect x="24" y="206" width="7" height="7" fill="#3d5a7e" shape-rendering="crispEdges"/><text x="36" y="213" font-size="8" fill="#7d93b3">OTHER 1.0%</text><circle cx="620" cy="79" r="4" fill="#0b1f3a" stroke="#7d93b3" stroke-width="2"/><text x="660" y="82" font-size="8" fill="#7d93b3" text-anchor="end" letter-spacing="1">% BYTES</text><circle cx="686" cy="79" r="4" fill="#7d93b3"/><text x="726" y="82" font-size="8" fill="#7d93b3" text-anchor="end" letter-spacing="1">% REPOS</text><rect x="330" y="92" width="1" height="102" fill="#122a4d"/><text x="330" y="207" font-size="8" fill="#7d93b3" text-anchor="middle">0%</text><rect x="465" y="92" width="1" height="102" fill="#122a4d"/><text x="465" y="207" font-size="8" fill="#7d93b3" text-anchor="middle">50%</text><rect x="600" y="92" width="1" height="102" fill="#122a4d"/><text x="600" y="207" font-size="8" fill="#7d93b3" text-anchor="middle">100%</text><rect x="190" y="90" width="10" height="10" fill="#3987e5" shape-rendering="crispEdges"/><text x="207" y="100" font-size="11" fill="#a9bcd4">Jupyter Notebook</text><line x1="561.0" y1="96" x2="443.7" y2="96" stroke="#3987e5" stroke-width="2" stroke-opacity="0.45"/><circle cx="561.0" cy="96" r="4.5" fill="#0b1f3a" stroke="#3987e5" stroke-width="2"/><circle cx="443.7" cy="96" r="4.5" fill="#3987e5" stroke="#0b1f3a" stroke-width="1.5"/><text x="660" y="100" font-size="10" font-weight="bold" fill="#ffffff" text-anchor="end">85.5</text><text x="726" y="100" font-size="10" font-weight="bold" fill="#ffffff" text-anchor="end">42</text><rect x="190" y="108" width="10" height="10" fill="#d95926" shape-rendering="crispEdges"/><text x="207" y="118" font-size="11" fill="#a9bcd4">HTML</text><line x1="346.4" y1="114" x2="443.7" y2="114" stroke="#d95926" stroke-width="2" stroke-opacity="0.45"/><circle cx="346.4" cy="114" r="4.5" fill="#0b1f3a" stroke="#d95926" stroke-width="2"/><circle cx="443.7" cy="114" r="4.5" fill="#d95926" stroke="#0b1f3a" stroke-width="1.5"/><text x="660" y="118" font-size="10" font-weight="bold" fill="#ffffff" text-anchor="end">6.1</text><text x="726" y="118" font-size="10" font-weight="bold" fill="#ffffff" text-anchor="end">42</text><rect x="190" y="126" width="10" height="10" fill="#199e70" shape-rendering="crispEdges"/><text x="207" y="136" font-size="11" fill="#a9bcd4">TypeScript</text><line x1="339.9" y1="132" x2="372.6" y2="132" stroke="#199e70" stroke-width="2" stroke-opacity="0.45"/><circle cx="339.9" cy="132" r="4.5" fill="#0b1f3a" stroke="#199e70" stroke-width="2"/><circle cx="372.6" cy="132" r="4.5" fill="#199e70" stroke="#0b1f3a" stroke-width="1.5"/><text x="660" y="136" font-size="10" font-weight="bold" fill="#ffffff" text-anchor="end">3.7</text><text x="726" y="136" font-size="10" font-weight="bold" fill="#ffffff" text-anchor="end">16</text><rect x="190" y="144" width="10" height="10" fill="#c98500" shape-rendering="crispEdges"/><text x="207" y="154" font-size="11" fill="#a9bcd4">JavaScript</text><line x1="334.3" y1="150" x2="415.3" y2="150" stroke="#c98500" stroke-width="2" stroke-opacity="0.45"/><circle cx="334.3" cy="150" r="4.5" fill="#0b1f3a" stroke="#c98500" stroke-width="2"/><circle cx="415.3" cy="150" r="4.5" fill="#c98500" stroke="#0b1f3a" stroke-width="1.5"/><text x="660" y="154" font-size="10" font-weight="bold" fill="#ffffff" text-anchor="end">1.6</text><text x="726" y="154" font-size="10" font-weight="bold" fill="#ffffff" text-anchor="end">32</text><rect x="190" y="162" width="10" height="10" fill="#d55181" shape-rendering="crispEdges"/><text x="207" y="172" font-size="11" fill="#a9bcd4">Astro</text><line x1="333.7" y1="168" x2="344.2" y2="168" stroke="#d55181" stroke-width="2" stroke-opacity="0.45"/><circle cx="333.7" cy="168" r="4.5" fill="#0b1f3a" stroke="#d55181" stroke-width="2"/><circle cx="344.2" cy="168" r="4.5" fill="#d55181" stroke="#0b1f3a" stroke-width="1.5"/><text x="660" y="172" font-size="10" font-weight="bold" fill="#ffffff" text-anchor="end">1.4</text><text x="726" y="172" font-size="10" font-weight="bold" fill="#ffffff" text-anchor="end">5</text><rect x="190" y="180" width="10" height="10" fill="#008300" shape-rendering="crispEdges"/><text x="207" y="190" font-size="11" fill="#a9bcd4">CSS</text><line x1="332.1" y1="186" x2="415.3" y2="186" stroke="#008300" stroke-width="2" stroke-opacity="0.45"/><circle cx="332.1" cy="186" r="4.5" fill="#0b1f3a" stroke="#008300" stroke-width="2"/><circle cx="415.3" cy="186" r="4.5" fill="#008300" stroke="#0b1f3a" stroke-width="1.5"/><text x="660" y="190" font-size="10" font-weight="bold" fill="#ffffff" text-anchor="end">0.8</text><text x="726" y="190" font-size="10" font-weight="bold" fill="#ffffff" text-anchor="end">32</text></g></svg>
